<mxfile host="app.diagrams.net" agent="Mozilla/5.0 (Windows NT 10.0; Win64; x64) AppleWebKit/537.36 (KHTML, like Gecko) Chrome/135.0.0.0 Safari/537.36 OPR/120.0.0.0 (Edition Yx GX)" version="28.2.1">
  <diagram name="Страница — 1" id="kMGAEVgWLZM-bYfMIyvv">
    <mxGraphModel dx="998" dy="544" grid="1" gridSize="10" guides="1" tooltips="1" connect="1" arrows="1" fold="1" page="1" pageScale="1" pageWidth="827" pageHeight="1169" math="0" shadow="0">
      <root>
        <mxCell id="0" />
        <mxCell id="1" parent="0" />
        <mxCell id="i2NHLoArj4L2e_kZP6KS-18" value="" style="rounded=0;whiteSpace=wrap;html=1;fillColor=light-dark(#FFFFFF,#FFFFFF);" vertex="1" parent="1">
          <mxGeometry x="20" y="190" width="660" height="200" as="geometry" />
        </mxCell>
        <mxCell id="i2NHLoArj4L2e_kZP6KS-1" value="" style="outlineConnect=0;dashed=0;verticalLabelPosition=bottom;verticalAlign=top;align=center;html=1;shape=mxgraph.aws3.corporate_data_center;fillColor=#7D7C7C;gradientColor=none;" vertex="1" parent="1">
          <mxGeometry x="70" y="240" width="70" height="90" as="geometry" />
        </mxCell>
        <mxCell id="i2NHLoArj4L2e_kZP6KS-3" value="" style="outlineConnect=0;dashed=0;verticalLabelPosition=bottom;verticalAlign=top;align=center;html=1;shape=mxgraph.aws3.corporate_data_center;fillColor=#7D7C7C;gradientColor=none;" vertex="1" parent="1">
          <mxGeometry x="560" y="240" width="70" height="90" as="geometry" />
        </mxCell>
        <mxCell id="i2NHLoArj4L2e_kZP6KS-8" value="" style="shape=wire;edgeStyle=orthogonalEdgeStyle;orthogonalLoop=1;jettySize=auto;html=1;sourcePerimeterSpacing=0;targetPerimeterSpacing=0;endArrow=none;curved=0;rounded=0;strokeColor=light-dark(#009900,#000000);fillColor=#ffff00;fixDash=1;startSize=6;endSize=6;entryX=0;entryY=0.25;entryDx=0;entryDy=0;entryPerimeter=0;exitX=1;exitY=0.25;exitDx=0;exitDy=0;exitPerimeter=0;strokeWidth=5;" edge="1" parent="1" source="i2NHLoArj4L2e_kZP6KS-1" target="i2NHLoArj4L2e_kZP6KS-3">
          <mxGeometry width="100" relative="1" as="geometry">
            <mxPoint x="340" y="130" as="sourcePoint" />
            <mxPoint x="440" y="130" as="targetPoint" />
          </mxGeometry>
        </mxCell>
        <mxCell id="i2NHLoArj4L2e_kZP6KS-31" value="&lt;span style=&quot;font-size: 14px;&quot;&gt;first&lt;/span&gt;" style="text;html=1;align=center;verticalAlign=middle;whiteSpace=wrap;rounded=0;" vertex="1" parent="1">
          <mxGeometry x="70" y="280" width="70" height="60" as="geometry" />
        </mxCell>
        <mxCell id="i2NHLoArj4L2e_kZP6KS-32" value="&lt;span style=&quot;font-size: 14px;&quot;&gt;second&lt;/span&gt;" style="text;html=1;align=center;verticalAlign=middle;whiteSpace=wrap;rounded=0;" vertex="1" parent="1">
          <mxGeometry x="560" y="280" width="70" height="60" as="geometry" />
        </mxCell>
        <mxCell id="i2NHLoArj4L2e_kZP6KS-33" value="&lt;font style=&quot;color: light-dark(rgb(0, 0, 0), rgb(0, 0, 0));&quot;&gt;eth1&lt;/font&gt;" style="text;html=1;align=center;verticalAlign=middle;whiteSpace=wrap;rounded=0;strokeWidth=1;strokeColor=light-dark(#000000,#000000);perimeterSpacing=4;dashed=1;" vertex="1" parent="1">
          <mxGeometry x="140" y="230" width="36" height="30" as="geometry" />
        </mxCell>
        <mxCell id="i2NHLoArj4L2e_kZP6KS-34" value="&lt;font style=&quot;color: light-dark(rgb(0, 0, 0), rgb(0, 0, 0));&quot;&gt;eth1&lt;/font&gt;" style="text;html=1;align=center;verticalAlign=middle;whiteSpace=wrap;rounded=0;strokeWidth=1;strokeColor=light-dark(#000000,#000000);perimeterSpacing=4;dashed=1;" vertex="1" parent="1">
          <mxGeometry x="524" y="230" width="36" height="30" as="geometry" />
        </mxCell>
        <mxCell id="i2NHLoArj4L2e_kZP6KS-46" value="" style="shape=wire;edgeStyle=orthogonalEdgeStyle;orthogonalLoop=1;jettySize=auto;html=1;sourcePerimeterSpacing=0;targetPerimeterSpacing=0;endArrow=none;curved=0;rounded=0;strokeColor=light-dark(#009900,#000000);fillColor=#ffff00;fixDash=1;startSize=6;endSize=6;entryX=0;entryY=0.75;entryDx=0;entryDy=0;entryPerimeter=0;exitX=1;exitY=0.75;exitDx=0;exitDy=0;exitPerimeter=0;strokeWidth=5;" edge="1" parent="1" source="i2NHLoArj4L2e_kZP6KS-1" target="i2NHLoArj4L2e_kZP6KS-3">
          <mxGeometry width="100" relative="1" as="geometry">
            <mxPoint x="110" y="400" as="sourcePoint" />
            <mxPoint x="530" y="400" as="targetPoint" />
          </mxGeometry>
        </mxCell>
        <mxCell id="i2NHLoArj4L2e_kZP6KS-47" value="&lt;font style=&quot;color: light-dark(rgb(0, 0, 0), rgb(0, 0, 0));&quot;&gt;eth2&lt;/font&gt;" style="text;html=1;align=center;verticalAlign=middle;whiteSpace=wrap;rounded=0;strokeWidth=1;strokeColor=light-dark(#000000,#000000);perimeterSpacing=4;dashed=1;" vertex="1" parent="1">
          <mxGeometry x="140" y="310" width="36" height="30" as="geometry" />
        </mxCell>
        <mxCell id="i2NHLoArj4L2e_kZP6KS-48" value="&lt;font style=&quot;color: light-dark(rgb(0, 0, 0), rgb(0, 0, 0));&quot;&gt;eth2&lt;/font&gt;" style="text;html=1;align=center;verticalAlign=middle;whiteSpace=wrap;rounded=0;strokeWidth=1;strokeColor=light-dark(#000000,#000000);perimeterSpacing=4;dashed=1;" vertex="1" parent="1">
          <mxGeometry x="524" y="310" width="36" height="30" as="geometry" />
        </mxCell>
      </root>
    </mxGraphModel>
  </diagram>
</mxfile>
